<?xml version="1.0" encoding="UTF-8"?>
<svg width="456px" height="148px" viewBox="0 0 456 148" version="1.1" xmlns="http://www.w3.org/2000/svg" xmlns:xlink="http://www.w3.org/1999/xlink">
    <!-- Generator: Sketch 53.2 (72643) - https://sketchapp.com -->
    <title>Group</title>
    <desc>Created with Sketch.</desc>
    <defs>
        <polygon id="path-1" points="0 0.832 321.5999 0.832 321.5999 168.9996 0 168.9996"></polygon>
    </defs>
    <g id="Page-1" stroke="none" stroke-width="1" fill="none" fill-rule="evenodd">
        <g id="logo" transform="translate(-356.000000, -206.000000)">
            <g id="Group" transform="translate(346.000000, 195.000000)">
                <g id="Group-4">
                    <g id="Group-26-Copy">
                        <g id="Group-3" transform="translate(0.000000, 0.168000)">
                            <mask id="mask-2" fill="white">
                                <use xlink:href="#path-1"></use>
                            </mask>
                            <g id="Clip-2"></g>
                        </g>
                        <path d="M105.4631,107.9072 C105.8851,111.5972 107.2701,114.9552 109.5211,117.6902 C112.6191,121.4442 117.1921,123.5112 122.4241,123.5112 C127.6131,123.5112 132.1951,121.4442 135.2961,117.6902 C138.0591,114.3532 139.5361,110.0952 139.5361,105.4262 L139.5361,58.7782 C139.5361,54.8302 138.4511,51.2242 136.3381,48.0552 C135.6781,47.0522 135.7051,45.7252 136.4331,44.7942 C138.7961,41.7242 140.0041,38.2342 140.0041,34.4392 C140.0041,29.8052 138.2541,25.6192 135.0021,22.3342 C131.7221,19.0652 127.5201,17.3242 122.8921,17.3242 C118.2301,17.3242 114.0451,19.0542 110.7731,22.3342 L110.7551,22.3342 C107.5021,25.6192 105.7631,29.8052 105.7631,34.4392 C105.7631,38.0492 106.8061,41.3382 108.8841,44.2742 C109.2301,44.7552 109.3841,45.3022 109.3841,45.8742 C109.3841,46.4392 109.2041,47.0162 108.8421,47.4912 C106.5311,50.7272 105.2961,54.6272 105.2961,58.7782 L105.2961,103.1012 C105.4351,104.1742 105.5251,105.2642 105.5251,106.3942 C105.5251,106.8982 105.4981,107.4172 105.4631,107.9072" id="Fill-4" fill="#FEFEFE"></path>
                        <path d="M211.7761,48.7378 C205.8051,42.9278 197.9381,39.9828 188.4241,39.9828 C183.1811,39.9828 178.4681,40.9128 174.4791,42.7328 C173.6991,43.0718 172.7761,43.0668 172.0121,42.6508 C169.5471,41.3488 166.7341,40.6948 163.6301,40.6948 C158.4101,40.6948 153.8391,42.7628 150.7171,46.5388 C147.9471,49.8808 146.4851,54.1018 146.4851,58.7788 L146.4851,105.4258 C146.4851,110.0958 147.9471,114.3248 150.7251,117.6908 C153.7991,121.4448 158.4101,123.5108 163.6091,123.5108 C168.8291,123.5108 173.4281,121.4448 176.5311,117.6688 C179.2731,114.3248 180.7211,110.0958 180.7211,105.4258 L180.7211,74.8118 L180.8221,73.6558 C180.9151,72.1438 182.0511,71.2248 183.5681,71.2818 L183.9681,71.3108 C185.4061,71.3858 186.5001,72.3298 186.5711,73.7668 L186.6351,74.8118 L186.6351,105.4258 C186.6351,110.0878 188.0951,114.3248 190.8551,117.6688 C193.9591,121.4448 198.5431,123.5108 203.7521,123.5108 C208.9901,123.5108 213.5531,121.4448 216.6491,117.6908 C219.4231,114.3248 220.8821,110.0878 220.8821,105.4258 L220.8821,89.2998 C220.6471,87.0298 220.4971,84.7438 220.4971,82.3418 C220.4971,80.1538 220.6471,77.9898 220.8821,75.8838 L220.8821,71.9228 C220.8821,62.4008 217.8071,54.6058 211.7761,48.7378" id="Fill-6" fill="#FEFEFE"></path>
                        <path d="M240.1374,116.7959 C240.7634,117.3319 241.1274,118.1119 241.1274,118.9279 C241.1274,119.1069 241.1144,119.2879 241.0714,119.4489 C240.9064,120.4579 240.1954,121.2659 239.2334,121.5729 C232.9404,123.6759 228.3914,130.0979 228.3914,136.8659 C228.3914,145.5229 235.2994,152.8169 243.4514,152.8169 L263.0754,152.8169 C275.5894,152.8169 285.6874,149.4779 293.1104,142.8839 C302.0634,134.8389 305.2454,120.3079 305.2454,109.3659 L305.2454,58.7779 C305.2454,54.1159 303.8084,49.8799 301.0404,46.5319 C297.9374,42.7629 293.3604,40.6939 288.1474,40.6939 C284.8934,40.6939 281.9534,41.4189 279.3764,42.8589 C278.5654,43.3259 277.5994,43.3369 276.7624,42.9209 C272.9184,40.9859 268.4034,39.9829 263.3614,39.9829 C252.0194,39.9829 242.3084,44.7549 235.3424,53.8009 L235.3274,53.8299 C230.3794,60.3089 227.4114,67.8249 226.4464,76.2159 L226.4464,89.0569 C227.3624,97.1269 229.8574,104.1919 234.0304,110.0879 C235.7504,112.5879 237.8024,114.8399 240.1374,116.7959" id="Fill-8" fill="#FEFEFE"></path>
                        <path d="M82.8215,89.9863 L69.3875,89.9863 C68.3425,89.9863 67.3855,89.4033 66.9175,88.4693 C66.4325,87.5333 66.5255,86.4073 67.1295,85.5593 C67.1295,85.5593 93.3605,49.2433 93.3415,49.2533 C96.1175,45.3283 97.5305,41.0933 97.5305,36.6793 C97.5305,31.2833 95.3215,26.6223 91.3385,23.5583 C87.9645,20.9443 83.6755,19.5713 78.9345,19.5713 L34.4295,19.5713 C29.9365,19.5713 25.8645,21.1943 22.6405,24.2623 C19.3095,27.4323 17.5605,31.5693 17.5605,36.2393 C17.5605,41.0793 19.4755,45.3853 22.9545,48.3163 C26.0795,50.9863 30.0565,52.3803 34.4295,52.3803 L44.5725,52.3803 C45.6225,52.3803 46.5795,52.9733 47.0485,53.9083 C47.5405,54.8303 47.4505,55.9573 46.8505,56.8113 C46.8505,56.8113 20.2735,93.8983 20.2845,93.8693 C19.4295,95.1023 18.7145,96.3373 18.1955,97.5313 L18.1175,97.6673 C16.9485,100.4053 16.3555,103.1163 16.3555,105.7013 C16.3555,111.0323 18.5665,115.6663 22.5925,118.7883 C26.0065,121.4203 30.2675,122.8103 34.9375,122.8103 L82.8215,122.8103 C87.1175,122.8103 91.1245,121.3303 94.4335,118.4333 C97.5385,115.7233 99.4465,112.1473 99.8575,108.1293 C99.7655,107.2423 99.7195,106.3553 99.7195,105.4253 L99.7195,103.3733 C98.4825,95.1493 92.1425,89.9863 82.8215,89.9863" id="Fill-10" fill="#FEFEFE"></path>
                        <path d="M114.1291,34.4389 C114.1291,32.0269 114.9831,29.9569 116.6801,28.2639 C118.3831,26.5569 120.4491,25.6889 122.8921,25.6889 C125.3011,25.6889 127.3801,26.5569 129.0791,28.2639 C130.7791,29.9569 131.6231,32.0269 131.6231,34.4389 C131.6231,36.8809 130.7791,38.9369 129.0791,40.6389 C127.3801,42.3469 125.3011,43.1969 122.8921,43.1969 C120.4491,43.1969 118.3831,42.3469 116.6801,40.6389 C114.9831,38.9369 114.1291,36.8809 114.1291,34.4389 M113.6661,105.4259 L113.6661,58.7779 C113.6661,56.0249 114.4221,53.7149 115.9751,51.8649 C117.5121,49.9979 119.6501,49.0559 122.4241,49.0559 C125.1621,49.0559 127.3101,49.9979 128.8451,51.8649 C130.3871,53.7149 131.1641,56.0249 131.1641,58.7779 L131.1641,105.4259 C131.1641,108.1759 130.3871,110.4849 128.8451,112.3619 C127.3101,114.2289 125.1621,115.1509 122.4241,115.1509 C119.6501,115.1509 117.5121,114.2289 115.9751,112.3619 C114.4221,110.4849 113.6661,108.1759 113.6661,105.4259" id="Fill-12" fill="#49A942"></path>
                        <path d="M154.8679,105.4258 L154.8679,58.7788 C154.8679,56.0248 155.6349,53.7158 157.1759,51.8648 C158.7119,49.9978 160.8549,49.0558 163.6299,49.0558 C168.1609,49.0558 170.8389,51.1778 171.6609,55.3668 C175.1299,50.7078 180.7219,48.3538 188.4239,48.3538 C195.7249,48.3538 201.5599,50.4688 205.9439,54.7128 C210.3089,58.9788 212.5169,64.7208 212.5169,71.9228 L212.5169,105.4258 C212.5169,108.1938 211.7299,110.4858 210.1999,112.3628 C208.6549,114.2288 206.5129,115.1518 203.7519,115.1518 C201.0169,115.1518 198.8719,114.2288 197.3189,112.3628 C195.7759,110.4858 195.0139,108.1758 195.0139,105.4258 L195.0139,74.8118 C195.0139,71.1818 194.0019,68.2678 192.0419,66.1338 C190.0399,63.9988 187.2189,62.9008 183.5679,62.9008 C180.0779,62.9008 177.3259,64.0278 175.3409,66.2688 C173.3519,68.4898 172.3549,71.3428 172.3549,74.8118 L172.3549,105.4258 C172.3549,108.1758 171.6039,110.4858 170.0339,112.3628 C168.5209,114.2288 166.3589,115.1518 163.6089,115.1518 C160.8549,115.1518 158.6999,114.2288 157.1759,112.3628 C155.6349,110.4858 154.8679,108.1758 154.8679,105.4258" id="Fill-14" fill="#F37A20"></path>
                        <path d="M279.4011,82.5849 C279.4011,77.8289 278.3071,73.7389 276.1191,70.3629 C273.6161,66.4299 270.0761,64.4389 265.5351,64.4389 C261.2521,64.4389 257.8331,66.3229 255.3341,70.1419 C253.0711,73.5169 251.9401,77.4389 251.9401,81.8699 C251.9401,86.6209 252.9771,90.6509 255.0901,93.9699 C257.5291,97.8309 261.0151,99.7699 265.5351,99.7699 C270.0761,99.7699 273.6161,97.9449 276.1191,94.3269 C278.3071,91.1839 279.4011,87.2749 279.4011,82.5849 L279.4011,82.5849 Z M243.4521,144.4499 C239.8121,144.4499 236.7691,140.8099 236.7691,136.8659 C236.7691,132.9219 240.3481,129.2929 243.2881,129.2929 L263.0751,129.2929 C267.5451,129.2929 272.6221,128.0519 275.3331,125.6209 C278.0391,123.1529 279.4011,116.1889 279.4011,111.7829 L279.4011,107.6489 C275.4431,113.1089 269.4361,115.8559 261.4161,115.8559 C252.5881,115.8559 245.7551,112.3259 240.8841,105.2899 C236.5761,99.2299 234.4341,91.5809 234.4341,82.3419 C234.4341,73.2809 236.9551,65.4789 241.9791,58.9279 C247.3991,51.8789 254.5221,48.3539 263.3611,48.3539 C270.7231,48.3539 276.0901,51.0189 279.4011,56.3289 C280.4451,51.4819 283.3671,49.0559 288.1471,49.0559 C290.8931,49.0559 293.0491,49.9979 294.5761,51.8649 C296.1211,53.7149 296.8791,56.0389 296.8791,58.7779 L296.8791,109.3659 C296.8791,119.5569 293.7611,131.0339 287.5471,136.6339 C281.6111,141.8829 273.4521,144.4499 263.0751,144.4499 L243.4521,144.4499 Z" id="Fill-16" fill="#ED2B74"></path>
                        <path d="M47.5759,98.3535 L82.8219,98.3535 C88.6589,98.3535 91.5759,101.0595 91.5759,106.3945 C91.5759,108.6715 90.6879,110.5885 88.9239,112.1475 C87.1349,113.6775 85.1089,114.4505 82.8219,114.4505 L34.9379,114.4505 C32.0919,114.4505 29.6799,113.6775 27.6919,112.1475 C25.7009,110.5995 24.7209,108.4515 24.7209,105.7015 C24.7209,104.2245 25.0679,102.6725 25.8059,100.9625 C26.1389,100.2345 26.5879,99.4755 27.1429,98.6535 L66.2989,44.0055 L34.4299,44.0055 C32.0189,44.0055 29.9839,43.3265 28.3679,41.9245 C26.7399,40.5735 25.9399,38.6525 25.9399,36.2395 C25.9399,33.8755 26.7579,31.8915 28.4379,30.3255 C30.0859,28.7345 32.0919,27.9205 34.4299,27.9205 L78.9339,27.9205 C81.8439,27.9205 84.2989,28.6765 86.2299,30.1785 C88.1719,31.6765 89.1379,33.8365 89.1379,36.6795 C89.1379,39.3575 88.2599,41.9245 86.5009,44.4395 L47.5759,98.3535 Z" id="Fill-18" fill="#009CDB"></path>
                        <path d="M103.3474,45.874 C101.0124,49.707 99.7204,54.116 99.7204,58.778 L99.7204,91.109 C95.6934,86.896 89.8164,84.416 82.8214,84.416 L74.8574,84.416 C79.7604,77.582 97.9004,52.508 97.9004,52.508 C99.9044,49.639 101.3164,46.645 102.1754,43.52 C102.5234,44.312 102.9074,45.108 103.3474,45.874 L103.3474,45.874 Z M99.8574,108.129 C99.4464,112.147 97.5384,115.724 94.4334,118.434 C91.1244,121.33 87.1174,122.811 82.8214,122.811 L34.9374,122.811 C30.2674,122.811 26.0064,121.42 22.5924,118.788 C18.5664,115.666 16.3554,111.032 16.3554,105.701 C16.3554,103.116 16.9494,100.405 18.1174,97.667 L18.1954,97.531 C18.7144,96.337 19.4304,95.103 20.2844,93.869 C20.2734,93.898 46.8504,56.812 46.8504,56.812 C47.4514,55.957 47.5404,54.831 47.0484,53.908 C46.5794,52.973 45.6224,52.38 44.5734,52.38 L34.4304,52.38 C30.0564,52.38 26.0794,50.987 22.9544,48.316 C19.4754,45.386 17.5604,41.079 17.5604,36.239 C17.5604,31.569 19.3094,27.433 22.6404,24.263 C25.8654,21.195 29.9364,19.572 34.4304,19.572 L78.9344,19.572 C83.6754,19.572 87.9644,20.945 91.3384,23.559 C95.3224,26.623 97.5314,31.284 97.5314,36.679 C97.5314,41.093 96.1174,45.329 93.3414,49.253 C93.3604,49.244 67.1294,85.56 67.1294,85.56 C66.5254,86.407 66.4324,87.533 66.9174,88.47 C67.3854,89.403 68.3424,89.986 69.3884,89.986 L82.8214,89.986 C92.1424,89.986 98.4824,95.149 99.7204,103.373 C99.8574,104.346 99.9604,105.351 99.9604,106.395 C99.9604,106.984 99.9174,107.561 99.8574,108.129 L99.8574,108.129 Z M122.4244,123.511 C117.1914,123.511 112.6184,121.444 109.5204,117.69 C107.2694,114.955 105.8854,111.598 105.4634,107.907 C105.4974,107.417 105.5254,106.898 105.5254,106.395 C105.5254,105.265 105.4354,104.174 105.2964,103.102 L105.2964,58.778 C105.2964,54.627 106.5314,50.728 108.8424,47.492 C109.2044,47.016 109.3844,46.439 109.3844,45.874 C109.3844,45.302 109.2304,44.755 108.8844,44.274 C106.8064,41.338 105.7634,38.049 105.7634,34.439 C105.7634,29.805 107.5014,25.62 110.7554,22.334 L110.7734,22.334 C114.0454,19.055 118.2304,17.324 122.8914,17.324 C127.5194,17.324 131.7224,19.065 135.0014,22.334 C138.2544,25.62 140.0044,29.805 140.0044,34.439 C140.0044,38.234 138.7964,41.725 136.4324,44.794 C135.7044,45.726 135.6784,47.052 136.3384,48.055 C138.4514,51.225 139.5364,54.831 139.5364,58.778 L139.5364,105.426 C139.5364,110.096 138.0594,114.353 135.2964,117.69 C132.1954,121.444 127.6134,123.511 122.4244,123.511 L122.4244,123.511 Z M220.8824,105.426 C220.8824,110.088 219.4234,114.325 216.6494,117.69 C213.5534,121.444 208.9904,123.511 203.7514,123.511 C198.5424,123.511 193.9584,121.444 190.8554,117.669 C188.0954,114.325 186.6354,110.088 186.6354,105.426 L186.6354,74.811 L186.5714,73.767 C186.5004,72.33 185.4064,71.386 183.9684,71.311 L183.5684,71.282 C182.0514,71.225 180.9144,72.144 180.8224,73.656 L180.7214,74.811 L180.7214,105.426 C180.7214,110.096 179.2734,114.325 176.5314,117.669 C173.4284,121.444 168.8294,123.511 163.6084,123.511 C158.4104,123.511 153.7994,121.444 150.7244,117.69 C147.9474,114.325 146.4854,110.096 146.4854,105.426 L146.4854,58.778 C146.4854,54.102 147.9474,49.88 150.7174,46.539 C153.8394,42.763 158.4104,40.694 163.6294,40.694 C166.7344,40.694 169.5474,41.349 172.0124,42.65 C172.7764,43.067 173.6994,43.072 174.4784,42.732 C178.4684,40.913 183.1814,39.983 188.4244,39.983 C197.9384,39.983 205.8054,42.928 211.7764,48.738 C217.8074,54.605 220.8824,62.4 220.8824,71.922 L220.8824,75.884 C220.6474,77.99 220.4964,80.153 220.4964,82.342 C220.4964,84.744 220.6474,87.029 220.8824,89.3 L220.8824,105.426 Z M305.2454,109.366 C305.2454,120.308 302.0634,134.839 293.1104,142.884 C285.6874,149.478 275.5894,152.816 263.0754,152.816 L243.4514,152.816 C235.2994,152.816 228.3914,145.522 228.3914,136.866 C228.3914,130.098 232.9404,123.676 239.2334,121.573 C240.1954,121.266 240.9064,120.458 241.0714,119.449 C241.1144,119.288 241.1274,119.106 241.1274,118.928 C241.1274,118.112 240.7634,117.332 240.1374,116.796 C237.8024,114.84 235.7504,112.588 234.0304,110.088 C229.8574,104.192 227.3624,97.127 226.4464,89.057 C226.2064,86.883 226.0674,84.659 226.0674,82.342 C226.0674,80.235 226.2064,78.201 226.4464,76.216 C227.4114,67.825 230.3794,60.309 235.3274,53.83 L235.3424,53.801 C242.3084,44.755 252.0194,39.983 263.3614,39.983 C268.4034,39.983 272.9184,40.986 276.7624,42.92 C277.5994,43.337 278.5654,43.326 279.3764,42.859 C281.9534,41.418 284.8934,40.694 288.1474,40.694 C293.3604,40.694 297.9374,42.763 301.0404,46.532 C303.8084,49.88 305.2454,54.116 305.2454,58.778 L305.2454,109.366 Z M305.3534,42.997 C301.1624,37.913 295.0554,35.104 288.1474,35.104 C284.4574,35.104 281.0534,35.893 277.9634,37.403 C273.6304,35.438 268.7434,34.398 263.3614,34.398 C250.2094,34.398 238.9824,39.924 230.9374,50.408 L230.8944,50.442 C228.4924,53.572 226.5214,56.919 224.9694,60.452 C223.2924,54.398 220.1744,49.121 215.6764,44.728 C208.6114,37.888 199.4304,34.398 188.4244,34.398 C182.8784,34.398 177.8464,35.365 173.4064,37.174 C170.4424,35.832 167.1564,35.104 163.6294,35.104 C156.7144,35.104 150.5854,37.913 146.4124,42.997 C144.9764,44.705 143.8044,46.645 142.9434,48.695 C142.6114,47.992 142.2924,47.288 141.8904,46.602 C144.2684,42.928 145.5794,38.803 145.5794,34.439 C145.5794,28.271 143.2914,22.727 138.9514,18.388 C134.6014,14.053 129.0314,11.752 122.8914,11.752 C116.7264,11.752 111.1634,14.053 106.8224,18.388 L106.8064,18.415 C104.1674,21.025 102.3004,24.114 101.2584,27.509 C99.8294,24.238 97.6564,21.374 94.7564,19.135 C90.3764,15.769 84.9064,13.994 78.9344,13.994 L34.4304,13.994 C28.4754,13.994 23.0644,16.15 18.7954,20.219 C14.3354,24.468 11.9844,29.998 11.9844,36.239 C11.9844,42.75 14.5924,48.536 19.3384,52.585 C23.4724,56.103 28.7094,57.959 34.4304,57.959 L39.1344,57.959 C34.2194,64.814 15.7224,90.634 15.7224,90.634 C14.6594,92.188 13.7594,93.727 13.0664,95.271 C13.0604,95.313 13.0074,95.464 13.0074,95.464 C11.5334,98.907 10.7574,102.351 10.7574,105.701 C10.7574,112.795 13.7594,119.023 19.1844,123.196 C23.5584,126.594 29.0194,128.399 34.9374,128.399 L82.8214,128.399 C88.4924,128.399 93.7634,126.414 98.0644,122.639 C99.9044,121.087 101.4094,119.264 102.5854,117.275 C103.3394,118.677 104.2004,120.007 105.2264,121.237 C109.3964,126.314 115.5134,129.097 122.4244,129.097 C129.3284,129.097 135.4334,126.3 139.6114,121.237 C141.0134,119.557 142.1464,117.69 143.0204,115.681 C143.9054,117.669 145.0064,119.557 146.4124,121.237 C150.5854,126.3 156.6914,129.097 163.6084,129.097 C170.5424,129.097 176.6384,126.3 180.8224,121.219 C181.9874,119.821 182.8784,118.291 183.6964,116.656 C184.4764,118.291 185.4064,119.821 186.5574,121.219 C190.7374,126.3 196.8544,129.097 203.7514,129.097 C210.6634,129.097 216.7854,126.3 220.9614,121.237 C224.0074,117.519 225.8314,113.017 226.3254,108.058 C227.2544,109.866 228.2814,111.615 229.4464,113.288 C230.6514,115.02 232.0534,116.625 233.5334,118.177 C227.1724,121.999 222.8274,129.254 222.8274,136.866 C222.8274,148.544 232.2754,158.405 243.4514,158.405 L263.0754,158.405 C277.0124,158.405 288.3474,154.583 296.8074,147.053 C307.1414,137.77 310.8414,121.502 310.8414,109.366 L310.8414,58.778 C310.8414,52.787 308.9364,47.342 305.3534,42.997 L305.3534,42.997 Z" id="Fill-20" fill="#DEDEDE"></path>
                    </g>
                    <g id="Group-2-Copy" transform="translate(320.000000, 53.000000)" fill="#EEEEEE">
                        <path d="M38.5703125,10.3867188 L51.5195312,46.7148438 L65.4648438,8.8046875 C66.5585992,5.75779727 67.6328072,3.59961572 68.6875,2.33007812 C69.7421928,1.06054053 71.3437393,0.42578125 73.4921875,0.42578125 C75.5234477,0.42578125 77.251946,1.10936816 78.6777344,2.4765625 C80.1035228,3.84375684 80.8164062,5.42577227 80.8164062,7.22265625 C80.8164062,7.92578477 80.6894544,8.74608906 80.4355469,9.68359375 C80.1816394,10.6210984 79.8886735,11.4999959 79.5566406,12.3203125 C79.2246077,13.1406291 78.8437521,14.0781197 78.4140625,15.1328125 L63.0625,53.21875 C62.6328104,54.3125055 62.0761753,55.6992104 61.3925781,57.3789062 C60.708981,59.0586021 59.9472698,60.4941347 59.1074219,61.6855469 C58.2675739,62.8769591 57.232428,63.8046842 56.0019531,64.46875 C54.7714782,65.1328158 53.2773525,65.4648438 51.5195312,65.4648438 C49.2538949,65.4648438 47.4472724,64.9472708 46.0996094,63.9121094 C44.7519464,62.8769479 43.7558626,61.7441468 43.1113281,60.5136719 C42.4667937,59.283197 41.3828201,56.8515807 39.859375,53.21875 L24.625,15.5429688 C24.2734357,14.6054641 23.9121112,13.6679734 23.5410156,12.7304688 C23.16992,11.7929641 22.8574231,10.8359424 22.6035156,9.859375 C22.3496081,8.88280762 22.2226562,8.04297227 22.2226562,7.33984375 C22.2226562,6.24608828 22.5546842,5.16211475 23.21875,4.08789062 C23.8828158,3.0136665 24.8007754,2.13476904 25.9726562,1.45117188 C27.1445371,0.767574707 28.4140557,0.42578125 29.78125,0.42578125 C32.4375133,0.42578125 34.2636669,1.18749238 35.2597656,2.7109375 C36.2558644,4.23438262 37.3593689,6.79295078 38.5703125,10.3867188 Z M103.832031,9.2734375 L103.832031,11.2070312 C106.644545,7.4960752 109.720686,4.77149307 113.060547,3.03320312 C116.400407,1.29491318 120.23826,0.42578125 124.574219,0.42578125 C128.79299,0.42578125 132.562483,1.34374082 135.882812,3.1796875 C139.203142,5.01563418 141.683586,7.61326445 143.324219,10.9726562 C144.378912,12.925791 145.062498,15.0351449 145.375,17.3007812 C145.687502,19.5664176 145.84375,22.4570137 145.84375,25.9726562 L145.84375,55.7382812 C145.84375,58.9414223 145.111335,61.363273 143.646484,63.0039062 C142.181633,64.6445395 140.277355,65.4648438 137.933594,65.4648438 C135.550769,65.4648438 133.617195,64.6250084 132.132812,62.9453125 C130.64843,61.2656166 129.90625,58.8632969 129.90625,55.7382812 L129.90625,29.078125 C129.90625,23.8046611 129.173835,19.7714983 127.708984,16.9785156 C126.244133,14.1855329 123.324241,12.7890625 118.949219,12.7890625 C116.097642,12.7890625 113.500012,13.6386634 111.15625,15.3378906 C108.812488,17.0371179 107.093755,19.3710789 106,22.3398438 C105.218746,24.7226682 104.828125,29.1757486 104.828125,35.6992188 L104.828125,55.7382812 C104.828125,58.980485 104.076179,61.4121013 102.572266,63.0332031 C101.068352,64.654305 99.1250119,65.4648438 96.7421875,65.4648438 C94.4374885,65.4648438 92.5429762,64.6250084 91.0585938,62.9453125 C89.5742113,61.2656166 88.8320312,58.8632969 88.8320312,55.7382812 L88.8320312,9.5078125 C88.8320312,6.46092227 89.4960871,4.18555439 90.8242188,2.68164062 C92.1523504,1.17772686 93.9687385,0.42578125 96.2734375,0.42578125 C97.6796945,0.42578125 98.9492131,0.75780918 100.082031,1.421875 C101.214849,2.08594082 102.123043,3.08202461 102.806641,4.41015625 C103.490238,5.73828789 103.832031,7.35936543 103.832031,9.2734375 Z" id="vn"></path>
                        <path d="M9.8671875,66.4648438 C7.44530039,66.4648438 5.35547754,65.6836016 3.59765625,64.1210938 C1.83983496,62.5585859 0.9609375,60.3711078 0.9609375,57.5585938 C0.9609375,55.1757693 1.80077285,53.1250086 3.48046875,51.40625 C5.16016465,49.6874914 7.23045645,48.828125 9.69140625,48.828125 C12.1523561,48.828125 14.2519444,49.6777259 15.9902344,51.3769531 C17.7285243,53.0761804 18.5976562,55.1367066 18.5976562,57.5585938 C18.5976562,60.3320451 17.7285243,62.5097577 15.9902344,64.0917969 C14.2519444,65.673836 12.2109492,66.4648438 9.8671875,66.4648438 Z" id="."></path>
                    </g>
                </g>
            </g>
        </g>
    </g>
</svg>